<svg width="52" height="24" viewBox="0 0 52 24" fill="none" xmlns="http://www.w3.org/2000/svg">
<rect width="52" height="24" rx="4" fill="white"/>
<path d="M13.0003 6.66669C11.7137 6.66669 10.667 7.71335 10.667 9.00002C10.667 10.2867 11.7137 11.3334 13.0003 11.3334C14.287 11.3334 15.3337 10.2867 15.3337 9.00002C15.3337 7.71335 14.287 6.66669 13.0003 6.66669ZM13.0003 10C12.447 10 12.0003 9.55335 12.0003 9.00002C12.0003 8.44669 12.447 8.00002 13.0003 8.00002C13.5537 8.00002 14.0003 8.44669 14.0003 9.00002C14.0003 9.55335 13.5537 10 13.0003 10ZM19.0003 12.6667C17.7137 12.6667 16.667 13.7134 16.667 15C16.667 16.2867 17.7137 17.3334 19.0003 17.3334C20.287 17.3334 21.3337 16.2867 21.3337 15C21.3337 13.7134 20.287 12.6667 19.0003 12.6667ZM19.0003 16C18.447 16 18.0003 15.5534 18.0003 15C18.0003 14.4467 18.447 14 19.0003 14C19.5537 14 20.0003 14.4467 20.0003 15C20.0003 15.5534 19.5537 16 19.0003 16ZM11.607 17.3334L10.667 16.3934L20.3937 6.66669L21.3337 7.60669L11.607 17.3334Z" fill="#104FCD"/>
<path d="M32.3996 6.40002C32.3305 6.40001 32.2625 6.41791 32.2024 6.45198C32.1422 6.48605 32.0919 6.53513 32.0564 6.59442L29.6564 10.5944C29.6138 10.6656 29.5944 10.7483 29.6008 10.831C29.6073 10.9137 29.6393 10.9923 29.6924 11.056L35.6924 18.256C35.7299 18.301 35.7769 18.3373 35.83 18.3621C35.8831 18.387 35.941 18.3998 35.9996 18.3998C36.0582 18.3998 36.1161 18.387 36.1692 18.3621C36.2223 18.3373 36.2693 18.301 36.3068 18.256L42.3068 11.056C42.3599 10.9923 42.3919 10.9137 42.3984 10.831C42.4048 10.7483 42.3854 10.6656 42.3428 10.5944L39.9428 6.59442C39.9073 6.53513 39.857 6.48605 39.7968 6.45198C39.7367 6.41791 39.6687 6.40001 39.5996 6.40002H32.3996ZM30.706 10.4L32.626 7.20002H34.2092L32.9292 10.4H30.706ZM32.926 11.2L34.7396 15.8632L30.854 11.2H32.926ZM35.9996 16.896L33.7844 11.2H38.2148L35.9996 16.896ZM33.7908 10.4L35.0708 7.20002H36.9284L38.2084 10.4H33.7908ZM39.0708 10.4L37.7908 7.20002H39.3732L41.2932 10.4H39.0708ZM39.0732 11.2H41.1452L37.2596 15.8632L39.0732 11.2Z" fill="#F67213"/>
</svg>
