<svg width="60" height="18" viewBox="0 0 60 18" fill="none" xmlns="http://www.w3.org/2000/svg">
<rect width="60" height="18" rx="4" fill="#2C812F"/>
<path d="M15.05 13V6H18.19C18.9967 6 19.6167 6.16333 20.05 6.49C20.4833 6.81 20.7 7.25 20.7 7.81C20.7 8.19 20.6133 8.51 20.44 8.77C20.2733 9.03 20.0467 9.23 19.76 9.37C19.4733 9.51 19.1633 9.58 18.83 9.58L19.01 9.28C19.41 9.28 19.7633 9.35 20.07 9.49C20.3767 9.63 20.62 9.83667 20.8 10.11C20.98 10.3767 21.07 10.71 21.07 11.11C21.07 11.71 20.8433 12.1767 20.39 12.51C19.9433 12.8367 19.2767 13 18.39 13H15.05ZM16.05 12.19H18.35C18.9033 12.19 19.3267 12.0967 19.62 11.91C19.9133 11.7233 20.06 11.43 20.06 11.03C20.06 10.6233 19.9133 10.3267 19.62 10.14C19.3267 9.95333 18.9033 9.86 18.35 9.86H15.96V9.05H18.1C18.6067 9.05 19 8.95667 19.28 8.77C19.56 8.58333 19.7 8.30333 19.7 7.93C19.7 7.55667 19.56 7.27667 19.28 7.09C19 6.90333 18.6067 6.81 18.1 6.81H16.05V12.19ZM25.7684 13V11.88L25.7184 11.67V9.76C25.7184 9.35333 25.5984 9.04 25.3584 8.82C25.125 8.59333 24.7717 8.48 24.2984 8.48C23.985 8.48 23.6784 8.53333 23.3784 8.64C23.0784 8.74 22.825 8.87667 22.6184 9.05L22.2184 8.33C22.4917 8.11 22.8184 7.94333 23.1984 7.83C23.585 7.71 23.9884 7.65 24.4084 7.65C25.135 7.65 25.695 7.82667 26.0884 8.18C26.4817 8.53333 26.6784 9.07333 26.6784 9.8V13H25.7684ZM24.0284 13.06C23.635 13.06 23.2884 12.9933 22.9884 12.86C22.695 12.7267 22.4684 12.5433 22.3084 12.31C22.1484 12.07 22.0684 11.8 22.0684 11.5C22.0684 11.2133 22.135 10.9533 22.2684 10.72C22.4084 10.4867 22.6317 10.3 22.9384 10.16C23.2517 10.02 23.6717 9.95 24.1984 9.95H25.8784V10.64H24.2384C23.7584 10.64 23.435 10.72 23.2684 10.88C23.1017 11.04 23.0184 11.2333 23.0184 11.46C23.0184 11.72 23.1217 11.93 23.3284 12.09C23.535 12.2433 23.8217 12.32 24.1884 12.32C24.5484 12.32 24.8617 12.24 25.1284 12.08C25.4017 11.92 25.5984 11.6867 25.7184 11.38L25.9084 12.04C25.7817 12.3533 25.5584 12.6033 25.2384 12.79C24.9184 12.97 24.515 13.06 24.0284 13.06ZM28.4549 13V7.7H29.3749V9.14L29.2849 8.78C29.4316 8.41333 29.6783 8.13333 30.0249 7.94C30.3716 7.74667 30.7983 7.65 31.3049 7.65V8.58C31.2649 8.57333 31.2249 8.57 31.1849 8.57C31.1516 8.57 31.1183 8.57 31.0849 8.57C30.5716 8.57 30.1649 8.72333 29.8649 9.03C29.5649 9.33667 29.4149 9.78 29.4149 10.36V13H28.4549ZM34.523 13.06C33.9896 13.06 33.5763 12.9167 33.283 12.63C32.9896 12.3433 32.843 11.9333 32.843 11.4V6.54H33.803V11.36C33.803 11.6467 33.873 11.8667 34.013 12.02C34.1596 12.1733 34.3663 12.25 34.633 12.25C34.933 12.25 35.183 12.1667 35.383 12L35.683 12.69C35.5363 12.8167 35.3596 12.91 35.153 12.97C34.953 13.03 34.743 13.06 34.523 13.06ZM31.943 8.49V7.7H35.323V8.49H31.943ZM39.0278 13.06C38.4611 13.06 37.9611 12.9433 37.5278 12.71C37.1011 12.4767 36.7678 12.1567 36.5278 11.75C36.2945 11.3433 36.1778 10.8767 36.1778 10.35C36.1778 9.82333 36.2911 9.35667 36.5178 8.95C36.7511 8.54333 37.0678 8.22667 37.4678 8C37.8745 7.76667 38.3311 7.65 38.8378 7.65C39.3511 7.65 39.8045 7.76333 40.1978 7.99C40.5911 8.21667 40.8978 8.53667 41.1178 8.95C41.3445 9.35667 41.4578 9.83333 41.4578 10.38C41.4578 10.42 41.4545 10.4667 41.4478 10.52C41.4478 10.5733 41.4445 10.6233 41.4378 10.67H36.9278V9.98H40.9378L40.5478 10.22C40.5545 9.88 40.4845 9.57667 40.3378 9.31C40.1911 9.04333 39.9878 8.83667 39.7278 8.69C39.4745 8.53667 39.1778 8.46 38.8378 8.46C38.5045 8.46 38.2078 8.53667 37.9478 8.69C37.6878 8.83667 37.4845 9.04667 37.3378 9.32C37.1911 9.58667 37.1178 9.89333 37.1178 10.24V10.4C37.1178 10.7533 37.1978 11.07 37.3578 11.35C37.5245 11.6233 37.7545 11.8367 38.0478 11.99C38.3411 12.1433 38.6778 12.22 39.0578 12.22C39.3711 12.22 39.6545 12.1667 39.9078 12.06C40.1678 11.9533 40.3945 11.7933 40.5878 11.58L41.1178 12.2C40.8778 12.48 40.5778 12.6933 40.2178 12.84C39.8645 12.9867 39.4678 13.06 39.0278 13.06ZM42.7909 13V7.7H43.7109V9.14L43.6209 8.78C43.7675 8.41333 44.0142 8.13333 44.3609 7.94C44.7075 7.74667 45.1342 7.65 45.6409 7.65V8.58C45.6009 8.57333 45.5609 8.57 45.5209 8.57C45.4875 8.57 45.4542 8.57 45.4209 8.57C44.9075 8.57 44.5009 8.72333 44.2009 9.03C43.9009 9.33667 43.7509 9.78 43.7509 10.36V13H42.7909Z" fill="#F3F3F3"/>
</svg>
