<svg width="16" height="16" viewBox="0 0 16 16" fill="none" xmlns="http://www.w3.org/2000/svg">
<g id="Kredit">
<path id="Vector" d="M4.99984 2.66663C3.71317 2.66663 2.6665 3.71329 2.6665 4.99996C2.6665 6.28663 3.71317 7.33329 4.99984 7.33329C6.2865 7.33329 7.33317 6.28663 7.33317 4.99996C7.33317 3.71329 6.2865 2.66663 4.99984 2.66663ZM4.99984 5.99996C4.4465 5.99996 3.99984 5.55329 3.99984 4.99996C3.99984 4.44663 4.4465 3.99996 4.99984 3.99996C5.55317 3.99996 5.99984 4.44663 5.99984 4.99996C5.99984 5.55329 5.55317 5.99996 4.99984 5.99996ZM10.9998 8.66663C9.71317 8.66663 8.6665 9.71329 8.6665 11C8.6665 12.2866 9.71317 13.3333 10.9998 13.3333C12.2865 13.3333 13.3332 12.2866 13.3332 11C13.3332 9.71329 12.2865 8.66663 10.9998 8.66663ZM10.9998 12C10.4465 12 9.99984 11.5533 9.99984 11C9.99984 10.4466 10.4465 9.99996 10.9998 9.99996C11.5532 9.99996 11.9998 10.4466 11.9998 11C11.9998 11.5533 11.5532 12 10.9998 12ZM3.6065 13.3333L2.6665 12.3933L12.3932 2.66663L13.3332 3.60663L3.6065 13.3333Z" fill="#104FCD"/>
</g>
</svg>
