<svg width="52" height="24" viewBox="0 0 52 24" fill="none" xmlns="http://www.w3.org/2000/svg">
<rect width="52" height="24" rx="4" fill="white"/>
<path d="M12.9998 6.66663C11.7132 6.66663 10.6665 7.71329 10.6665 8.99996C10.6665 10.2866 11.7132 11.3333 12.9998 11.3333C14.2865 11.3333 15.3332 10.2866 15.3332 8.99996C15.3332 7.71329 14.2865 6.66663 12.9998 6.66663ZM12.9998 9.99996C12.4465 9.99996 11.9998 9.55329 11.9998 8.99996C11.9998 8.44663 12.4465 7.99996 12.9998 7.99996C13.5532 7.99996 13.9998 8.44663 13.9998 8.99996C13.9998 9.55329 13.5532 9.99996 12.9998 9.99996ZM18.9998 12.6666C17.7132 12.6666 16.6665 13.7133 16.6665 15C16.6665 16.2866 17.7132 17.3333 18.9998 17.3333C20.2865 17.3333 21.3332 16.2866 21.3332 15C21.3332 13.7133 20.2865 12.6666 18.9998 12.6666ZM18.9998 16C18.4465 16 17.9998 15.5533 17.9998 15C17.9998 14.4466 18.4465 14 18.9998 14C19.5532 14 19.9998 14.4466 19.9998 15C19.9998 15.5533 19.5532 16 18.9998 16ZM11.6065 17.3333L10.6665 16.3933L20.3932 6.66663L21.3332 7.60663L11.6065 17.3333Z" fill="#104FCD"/>
<path d="M32.4001 6.40002C32.331 6.40001 32.263 6.41791 32.2029 6.45198C32.1427 6.48605 32.0924 6.53513 32.0569 6.59442L29.6569 10.5944C29.6143 10.6656 29.5949 10.7483 29.6013 10.831C29.6078 10.9137 29.6398 10.9923 29.6929 11.056L35.6929 18.256C35.7304 18.301 35.7774 18.3373 35.8305 18.3621C35.8836 18.387 35.9415 18.3998 36.0001 18.3998C36.0587 18.3998 36.1166 18.387 36.1697 18.3621C36.2228 18.3373 36.2697 18.301 36.3073 18.256L42.3073 11.056C42.3604 10.9923 42.3924 10.9137 42.3989 10.831C42.4053 10.7483 42.3859 10.6656 42.3433 10.5944L39.9433 6.59442C39.9078 6.53513 39.8575 6.48605 39.7973 6.45198C39.7372 6.41791 39.6692 6.40001 39.6001 6.40002H32.4001ZM30.7065 10.4L32.6265 7.20002H34.2097L32.9297 10.4H30.7065ZM32.9265 11.2L34.7401 15.8632L30.8545 11.2H32.9265ZM36.0001 16.896L33.7849 11.2H38.2153L36.0001 16.896ZM33.7913 10.4L35.0713 7.20002H36.9289L38.2089 10.4H33.7913ZM39.0713 10.4L37.7913 7.20002H39.3737L41.2937 10.4H39.0713ZM39.0737 11.2H41.1457L37.2601 15.8632L39.0737 11.2Z" fill="#F67213"/>
</svg>
