<svg width="16" height="16" viewBox="0 0 16 16" fill="none" xmlns="http://www.w3.org/2000/svg">
<g id="Premium">
<path id="Vector" d="M4.40008 2.40002C4.33096 2.40001 4.26301 2.41791 4.20286 2.45198C4.14271 2.48605 4.09242 2.53513 4.05688 2.59442L1.65688 6.59442C1.61428 6.6656 1.59486 6.74826 1.60131 6.83096C1.60776 6.91366 1.63976 6.99231 1.69288 7.05602L7.69288 14.256C7.73042 14.301 7.7774 14.3373 7.83048 14.3621C7.88357 14.387 7.94147 14.3998 8.00008 14.3998C8.0587 14.3998 8.1166 14.387 8.16968 14.3621C8.22277 14.3373 8.26974 14.301 8.30728 14.256L14.3073 7.05602C14.3604 6.99231 14.3924 6.91366 14.3989 6.83096C14.4053 6.74826 14.3859 6.6656 14.3433 6.59442L11.9433 2.59442C11.9078 2.53513 11.8575 2.48605 11.7973 2.45198C11.7372 2.41791 11.6692 2.40001 11.6001 2.40002H4.40008ZM2.70648 6.40002L4.62648 3.20002H6.20968L4.92968 6.40002H2.70648ZM4.92648 7.20002L6.74008 11.8632L2.85448 7.20002H4.92648ZM8.00008 12.896L5.78488 7.20002H10.2153L8.00008 12.896ZM5.79128 6.40002L7.07128 3.20002H8.92888L10.2089 6.40002H5.79128ZM11.0713 6.40002L9.79128 3.20002H11.3737L13.2937 6.40002H11.0713ZM11.0737 7.20002H13.1457L9.26008 11.8632L11.0737 7.20002Z" fill="#F67213"/>
</g>
</svg>
