<svg width="60" height="18" viewBox="0 0 60 18" fill="none" xmlns="http://www.w3.org/2000/svg">
<rect width="60" height="18" rx="4" fill="#F67213"/>
<path d="M18.59 13.08C18.0567 13.08 17.5467 13 17.06 12.84C16.5733 12.6733 16.19 12.46 15.91 12.2L16.28 11.42C16.5467 11.6533 16.8867 11.8467 17.3 12C17.7133 12.1533 18.1433 12.23 18.59 12.23C18.9967 12.23 19.3267 12.1833 19.58 12.09C19.8333 11.9967 20.02 11.87 20.14 11.71C20.26 11.5433 20.32 11.3567 20.32 11.15C20.32 10.91 20.24 10.7167 20.08 10.57C19.9267 10.4233 19.7233 10.3067 19.47 10.22C19.2233 10.1267 18.95 10.0467 18.65 9.98C18.35 9.91333 18.0467 9.83667 17.74 9.75C17.44 9.65667 17.1633 9.54 16.91 9.4C16.6633 9.26 16.4633 9.07333 16.31 8.84C16.1567 8.6 16.08 8.29333 16.08 7.92C16.08 7.56 16.1733 7.23 16.36 6.93C16.5533 6.62333 16.8467 6.38 17.24 6.2C17.64 6.01333 18.1467 5.92 18.76 5.92C19.1667 5.92 19.57 5.97333 19.97 6.08C20.37 6.18667 20.7167 6.34 21.01 6.54L20.68 7.34C20.38 7.14 20.0633 6.99667 19.73 6.91C19.3967 6.81667 19.0733 6.77 18.76 6.77C18.3667 6.77 18.0433 6.82 17.79 6.92C17.5367 7.02 17.35 7.15333 17.23 7.32C17.1167 7.48667 17.06 7.67333 17.06 7.88C17.06 8.12667 17.1367 8.32333 17.29 8.47C17.45 8.61667 17.6533 8.73333 17.9 8.82C18.1533 8.90667 18.43 8.98667 18.73 9.06C19.03 9.12667 19.33 9.20333 19.63 9.29C19.9367 9.37667 20.2133 9.49 20.46 9.63C20.7133 9.77 20.9167 9.95667 21.07 10.19C21.2233 10.4233 21.3 10.7233 21.3 11.09C21.3 11.4433 21.2033 11.7733 21.01 12.08C20.8167 12.38 20.5167 12.6233 20.11 12.81C19.71 12.99 19.2033 13.08 18.59 13.08ZM25.9109 13V11.88L25.8609 11.67V9.76C25.8609 9.35333 25.7409 9.04 25.5009 8.82C25.2676 8.59333 24.9143 8.48 24.4409 8.48C24.1276 8.48 23.8209 8.53333 23.5209 8.64C23.2209 8.74 22.9676 8.87667 22.7609 9.05L22.3609 8.33C22.6343 8.11 22.9609 7.94333 23.3409 7.83C23.7276 7.71 24.1309 7.65 24.5509 7.65C25.2776 7.65 25.8376 7.82667 26.2309 8.18C26.6243 8.53333 26.8209 9.07333 26.8209 9.8V13H25.9109ZM24.1709 13.06C23.7776 13.06 23.4309 12.9933 23.1309 12.86C22.8376 12.7267 22.6109 12.5433 22.4509 12.31C22.2909 12.07 22.2109 11.8 22.2109 11.5C22.2109 11.2133 22.2776 10.9533 22.4109 10.72C22.5509 10.4867 22.7743 10.3 23.0809 10.16C23.3943 10.02 23.8143 9.95 24.3409 9.95H26.0209V10.64H24.3809C23.9009 10.64 23.5776 10.72 23.4109 10.88C23.2443 11.04 23.1609 11.2333 23.1609 11.46C23.1609 11.72 23.2643 11.93 23.4709 12.09C23.6776 12.2433 23.9643 12.32 24.3309 12.32C24.6909 12.32 25.0043 12.24 25.2709 12.08C25.5443 11.92 25.7409 11.6867 25.8609 11.38L26.0509 12.04C25.9243 12.3533 25.7009 12.6033 25.3809 12.79C25.0609 12.97 24.6576 13.06 24.1709 13.06ZM28.5975 13V5.58H29.5575V13H28.5975ZM33.6605 13.06C33.1271 13.06 32.6538 12.9433 32.2405 12.71C31.8271 12.4767 31.5005 12.1567 31.2605 11.75C31.0205 11.3367 30.9005 10.87 30.9005 10.35C30.9005 9.82333 31.0205 9.35667 31.2605 8.95C31.5005 8.54333 31.8271 8.22667 32.2405 8C32.6538 7.76667 33.1271 7.65 33.6605 7.65C34.1871 7.65 34.6571 7.76667 35.0705 8C35.4905 8.22667 35.8171 8.54333 36.0505 8.95C36.2905 9.35 36.4105 9.81667 36.4105 10.35C36.4105 10.8767 36.2905 11.3433 36.0505 11.75C35.8171 12.1567 35.4905 12.4767 35.0705 12.71C34.6571 12.9433 34.1871 13.06 33.6605 13.06ZM33.6605 12.22C34.0005 12.22 34.3038 12.1433 34.5705 11.99C34.8438 11.8367 35.0571 11.62 35.2105 11.34C35.3638 11.0533 35.4405 10.7233 35.4405 10.35C35.4405 9.97 35.3638 9.64333 35.2105 9.37C35.0571 9.09 34.8438 8.87333 34.5705 8.72C34.3038 8.56667 34.0005 8.49 33.6605 8.49C33.3205 8.49 33.0171 8.56667 32.7505 8.72C32.4838 8.87333 32.2705 9.09 32.1105 9.37C31.9505 9.64333 31.8705 9.97 31.8705 10.35C31.8705 10.7233 31.9505 11.0533 32.1105 11.34C32.2705 11.62 32.4838 11.8367 32.7505 11.99C33.0171 12.1433 33.3205 12.22 33.6605 12.22ZM40.5681 7.65C41.0015 7.65 41.3815 7.73333 41.7081 7.9C42.0415 8.06667 42.3015 8.32 42.4881 8.66C42.6748 9 42.7681 9.43 42.7681 9.95V13H41.8081V10.06C41.8081 9.54667 41.6815 9.16 41.4281 8.9C41.1815 8.64 40.8315 8.51 40.3781 8.51C40.0381 8.51 39.7415 8.57667 39.4881 8.71C39.2348 8.84333 39.0381 9.04 38.8981 9.3C38.7648 9.56 38.6981 9.88333 38.6981 10.27V13H37.7381V7.7H38.6581V9.13L38.5081 8.75C38.6815 8.40333 38.9481 8.13333 39.3081 7.94C39.6681 7.74667 40.0881 7.65 40.5681 7.65Z" fill="#F3F3F3"/>
</svg>
